<svg width="96" height="20" viewBox="0 0 96 20" fill="none" xmlns="http://www.w3.org/2000/svg">
<g clip-path="url(#clip0_1_6)">
<path d="M29.5938 0.663818H27.3973L24.5415 19.3362H35.0015L35.2808 17.4824H27.0173L29.5938 0.663818Z" fill="white"/>
<path d="M47.2571 0.428101C41.7734 0.428101 37.5552 5.23368 37.5552 11.1881C37.5552 15.9937 40.8139 19.5719 45.8168 19.5719C51.1485 19.5719 55.3686 15.0275 55.3686 8.83933C55.3667 4.26746 52.4614 0.428101 47.2571 0.428101ZM45.8415 17.7101C42.3302 17.7101 39.8277 15.2553 39.8277 11.1803C39.8277 6.34915 42.6779 2.2486 47.2381 2.2486C51.0288 2.2486 53.0999 5.1944 53.0999 8.82951C53.0942 13.9297 50.1376 17.716 45.8415 17.716V17.7101Z" fill="white"/>
<path d="M67.0161 11.7832H72.3724C71.8423 15.2298 69.946 17.7376 66.334 17.7376C62.3666 17.7376 60.3449 15.1257 60.3449 11.1312C60.3449 6.22153 63.0487 2.22507 67.4702 2.22507C70.1493 2.22507 72.1444 3.50551 72.3971 6.29812H74.5708C74.3181 2.30166 71.1849 0.422241 67.5215 0.422241C62.0645 0.422241 58.0724 5.30637 58.0724 11.1292C58.0724 15.9348 61.0289 19.5738 66.2846 19.5738C71.1621 19.5738 74.2193 16.6497 74.7741 9.91164H67.3182L67.0161 11.7832Z" fill="white"/>
<path d="M87.2045 0.428101C81.7208 0.428101 77.5027 5.23368 77.5027 11.1881C77.5027 15.9937 80.7613 19.5719 85.7642 19.5719C91.0959 19.5719 95.316 15.0275 95.316 8.83933C95.316 4.26746 92.4088 0.428101 87.2045 0.428101ZM85.7889 17.7101C82.2776 17.7101 79.7752 15.2553 79.7752 11.1803C79.7752 6.34915 82.6253 2.2486 87.1855 2.2486C90.9762 2.2486 93.0473 5.1944 93.0473 8.82951C93.0416 13.9297 90.085 17.716 85.7889 17.716V17.7101Z" fill="white"/>
<path d="M17.4105 0H3.05724L0 20H14.2564L17.4105 0Z" fill="white"/>
</g>
<defs>
<clipPath id="clip0_1_6">
<rect width="95.316" height="20" fill="white"/>
</clipPath>
</defs>
</svg>
